# xmcd
#
# Track frame offsets:
#	150
#	15354
#	31772
#	53001
#	68841
#	81188
#	99215
#	115921
#	138701
#	157569
#	176154
#	195171
#	208500
#	222832
#
# Disc length: 3187 seconds
#
# Revision: 1
# Processed by: cddbd v1.5.1PL2 Copyright (c) Steve Scherf et al.
# Submitted via: audiograbber 1.81.02
#
DISCID=a90c710e
DTITLE=José Rodriguez - Farben des Glücks
DYEAR=2006
DGENRE=Chanson
TTITLE0=Steh auf!
TTITLE1=Du bist wie ein Baum
TTITLE2=Fromme Schriften
TTITLE3=Der Onkel
TTITLE4=Ohne Zweifel
TTITLE5=Tief in mir
TTITLE6=Kleines Licht
TTITLE7=Reden wirkt oft Wunder
TTITLE8=So hab ich das nie gesagt
TTITLE9=Eine unbeschreiblich wunderbare Frau
TTITLE10=Nur bei Dir
TTITLE11=Hier bin ich
TTITLE12=Farben des Glücks
TTITLE13=Das Eine wünsch' ich Dir
EXTD=
EXTT0=
EXTT1=
EXTT2=
EXTT3=
EXTT4=
EXTT5=
EXTT6=
EXTT7=
EXTT8=
EXTT9=
EXTT10=
EXTT11=
EXTT12=
EXTT13=
PLAYORDER=
